<svg height="512pt" viewBox="-13 0 511 512" width="512pt" xmlns="http://www.w3.org/2000/svg"><path d="m325.5 158h-99v-40h99zm160.089844-98.035156v97.035156c0 33.085938-26.917969 60-60 60h-19.089844v235c0 33.085938-26.914062 60-60 60h-286c-33.085938 0-60-26.914062-60-60v-392c0-33.085938 26.914062-60 60-60h369v.132812c31.257812 2.058594 56.070312 28.109376 56.089844 59.832032zm-115.664063-19.964844h-309.425781c-11.027344 0-20 8.972656-20 20v392c0 11.027344 8.972656 20 20 20h286c11.027344 0 20-8.972656 20-20v-392c0-7.007812 1.207031-13.742188 3.425781-20zm75.664063 19.976562c-.007813-10.84375-8.75-19.703124-19.589844-19.96875-10.796875.265626-19.5 9.132813-19.5 19.992188v117h19.089844c11.027344 0 20-8.972656 20-20zm-248.132813 56.300782-29.914062-26.554688-36.933594 41.605469-25.40625-23.898437-27.40625 29.136718 55.398437 52.105469zm128.042969 121.722656h-99v40h99zm-128.042969-1.722656-29.914062-26.554688-36.933594 41.605469-25.40625-23.898437-27.40625 29.136718 55.398437 52.105469zm128.042969 121.722656h-99v40h99zm-128.042969-1.722656-29.914062-26.554688-36.933594 41.605469-25.40625-23.898437-27.40625 29.136718 55.398437 52.105469zm0 0"/></svg>