<?xml version="1.0" encoding="iso-8859-1"?>
<!-- Generator: Adobe Illustrator 19.0.0, SVG Export Plug-In . SVG Version: 6.00 Build 0)  -->
<svg version="1.1" id="Capa_1" xmlns="http://www.w3.org/2000/svg" xmlns:xlink="http://www.w3.org/1999/xlink" x="0px" y="0px"
	 viewBox="0 0 512 512" style="enable-background:new 0 0 512 512;" xml:space="preserve">
<g>
	<g>
		<path d="M512,289.74v-67.479l-68.197-18.139c-4.251-15.398-10.406-30.187-18.389-44.192l34.876-60.574l-47.646-47.647
			L352.07,86.585c-14.002-7.982-28.794-14.137-44.191-18.389L289.74,0h-67.48l-18.14,68.195
			c-15.397,4.252-30.189,10.408-44.191,18.389L99.355,51.708L51.709,99.355l34.876,60.573
			c-7.984,14.005-14.138,28.795-18.389,44.192L0,222.26v67.479l68.197,18.139c4.252,15.398,10.407,30.188,18.389,44.192
			L51.71,412.643l47.646,47.647l60.574-34.876c14.002,7.983,28.793,14.138,44.19,18.39L222.26,512h67.48l18.141-68.194
			c15.397-4.253,30.187-10.407,44.19-18.39l60.574,34.876l47.646-47.647l-34.876-60.573c7.983-14.004,14.137-28.794,18.389-44.192
			L512,289.74z M410.086,275.458l-2.504,12.098c-3.913,18.907-11.363,36.817-22.14,53.232l-6.755,10.289l31.644,54.96l-4.293,4.293
			l-54.961-31.645l-10.289,6.755c-16.415,10.778-34.325,18.227-53.232,22.141l-12.098,2.505L258.989,472h-5.977l-16.469-61.915
			l-12.098-2.505c-18.907-3.914-36.817-11.364-53.232-22.141l-10.289-6.755l-54.961,31.645l-4.293-4.293l31.644-54.96l-6.755-10.289
			c-10.778-16.415-18.227-34.325-22.14-53.232l-2.504-12.098L40,258.989v-5.977l61.914-16.47l2.504-12.099
			c3.912-18.905,11.362-36.814,22.14-53.231l6.755-10.289l-31.644-54.961l4.293-4.293l54.962,31.645l10.29-6.756
			c16.413-10.776,34.322-18.225,53.229-22.139l12.099-2.504L253.011,40h5.977l16.469,61.915l12.099,2.504
			c18.907,3.914,36.816,11.363,53.229,22.139l10.29,6.756l54.962-31.645l4.293,4.293l-31.644,54.961l6.755,10.289
			c10.779,16.416,18.228,34.326,22.14,53.231l2.504,12.099L472,253.011v5.977L410.086,275.458z"/>
	</g>
</g>
<g>
	<g>
		<path d="M256,140c-63.963,0-116,52.038-116,116s52.037,116,116,116s116-52.038,116-116S319.963,140,256,140z M256,332
			c-41.906,0-76-34.093-76-76s34.094-76,76-76s76,34.093,76,76C332,297.907,297.906,332,256,332z"/>
	</g>
</g>
<g>
</g>
<g>
</g>
<g>
</g>
<g>
</g>
<g>
</g>
<g>
</g>
<g>
</g>
<g>
</g>
<g>
</g>
<g>
</g>
<g>
</g>
<g>
</g>
<g>
</g>
<g>
</g>
<g>
</g>
</svg>
